<?xml version="1.0" standalone="no"?>
<!DOCTYPE svg PUBLIC "-//W3C//DTD SVG 20010904//EN"
 "http://www.w3.org/TR/2001/REC-SVG-20010904/DTD/svg10.dtd">
<svg version="1.0" xmlns="http://www.w3.org/2000/svg"
 width="1200.000000pt" height="276.000000pt" viewBox="0 0 1200.000000 276.000000"
 preserveAspectRatio="xMidYMid meet">

<g transform="translate(0.000000,276.000000) scale(0.100000,-0.100000)"
fill="#000000" stroke="none">
<path d="M4750 1380 c0 -1373 0 -1380 20 -1380 20 0 20 7 20 1380 0 1373 0
1380 -20 1380 -20 0 -20 -7 -20 -1380z"/>
<path d="M3212 2147 c-122 -122 -222 -226 -222 -230 0 -4 52 -7 115 -7 l115 0
0 -71 0 -71 64 -69 c208 -225 222 -573 32 -822 l-36 -47 180 0 180 0 0 540 0
540 120 0 c66 0 120 3 120 8 0 4 -100 107 -223 230 l-222 222 -223 -223z"/>
<path d="M8605 2131 c-114 -28 -205 -137 -234 -282 -20 -97 9 -219 92 -384 45
-89 77 -181 77 -218 0 -48 -27 -121 -54 -146 -31 -30 -76 -25 -94 9 -12 24
-10 119 5 156 5 13 -5 14 -63 9 -125 -11 -119 -5 -130 -131 -10 -108 18 -173
91 -212 48 -26 178 -22 237 6 83 41 142 124 174 247 31 114 12 204 -87 419
-77 166 -87 205 -66 277 19 63 45 92 78 87 35 -5 50 -43 43 -109 l-6 -57 69 5
c105 9 109 12 116 80 6 63 -3 136 -20 168 -37 68 -132 99 -228 76z"/>
<path d="M6010 2113 c0 -6 -157 -755 -220 -1048 -15 -71 -26 -133 -23 -137 5
-9 173 -11 173 -3 0 5 94 456 105 502 5 20 12 22 87 25 l82 3 13 65 c7 36 15
75 18 88 5 21 3 22 -75 22 -44 0 -80 3 -80 8 0 4 14 70 30 147 17 77 30 143
30 147 0 5 56 8 124 8 l123 0 17 83 c9 45 16 85 16 90 0 4 -94 7 -210 7 -115
0 -210 -3 -210 -7z"/>
<path d="M6491 2063 c-6 -32 -14 -68 -17 -80 -6 -23 -5 -23 79 -23 l84 0 12
63 c7 34 14 70 17 80 5 15 -3 17 -79 17 l-84 0 -12 -57z"/>
<path d="M6985 1814 c-16 -8 -45 -27 -64 -41 l-34 -26 7 36 7 37 -80 0 c-44 0
-82 -4 -85 -9 -7 -10 -186 -857 -186 -877 0 -11 18 -14 80 -14 74 0 80 2 85
23 3 12 37 171 75 352 63 304 71 332 96 353 33 28 58 25 61 -8 2 -14 -30 -179
-70 -368 -41 -188 -71 -344 -69 -347 3 -3 38 -5 79 -5 67 0 74 2 83 23 14 34
160 734 160 768 0 16 -6 45 -14 64 -23 55 -73 70 -131 39z"/>
<path d="M7410 1813 c-64 -23 -141 -104 -169 -177 -12 -33 -20 -65 -17 -73 4
-9 27 -13 81 -13 63 0 76 3 81 18 25 81 40 107 67 110 18 2 29 -2 33 -13 10
-26 -16 -152 -34 -168 -9 -8 -50 -32 -91 -52 -86 -43 -176 -127 -209 -195 -73
-153 -64 -304 21 -334 35 -13 99 7 141 44 18 17 36 30 38 30 3 0 3 -14 0 -30
l-4 -30 85 0 86 0 6 48 c4 26 36 184 71 351 35 168 64 326 64 351 0 118 -116
180 -250 133z m-1 -580 c-26 -124 -45 -156 -94 -151 -25 3 -31 8 -33 32 -8 70
47 177 110 216 18 11 34 18 36 15 2 -2 -6 -52 -19 -112z"/>
<path d="M8090 1823 c-8 -3 -37 -22 -63 -41 l-48 -35 6 37 7 37 -83 -3 -84 -3
-87 -410 c-47 -225 -89 -425 -93 -442 l-6 -33 84 0 84 0 6 33 c3 17 35 174 72
347 58 282 68 317 91 338 14 12 31 22 38 22 36 0 34 -26 -40 -370 -40 -190
-74 -351 -74 -358 0 -10 20 -12 82 -10 l83 3 77 365 c42 201 77 384 78 408 1
90 -58 142 -130 115z"/>
<path d="M9687 1815 c-15 -8 -40 -24 -55 -36 l-27 -21 -3 31 -3 31 -79 0 -79
0 -16 -72 c-8 -40 -51 -239 -93 -443 l-78 -370 79 -3 c44 -2 81 -1 83 1 2 2
37 161 78 352 63 298 77 351 96 367 26 21 58 24 66 5 3 -10 -103 -542 -141
-704 -5 -22 -3 -23 80 -23 47 0 85 4 85 8 0 5 34 170 76 368 41 197 75 380 75
406 0 102 -62 146 -144 103z"/>
<path d="M10090 1814 c-49 -21 -97 -70 -127 -128 -30 -60 -133 -530 -133 -609
0 -108 55 -160 168 -160 106 0 180 42 223 125 16 31 59 184 59 211 0 4 -37 7
-82 5 l-83 -3 -13 -55 c-24 -105 -28 -115 -55 -130 -24 -13 -28 -13 -43 2 -15
15 -12 36 41 289 32 151 64 284 72 297 9 15 23 22 45 22 l31 0 -6 -62 c-4 -35
-10 -73 -13 -85 -6 -23 -5 -23 78 -23 l85 0 13 74 c31 181 -13 247 -162 246
-35 -1 -79 -8 -98 -16z"/>
<path d="M2730 1809 c-39 -6 -98 -25 -148 -49 -228 -109 -354 -366 -297 -608
37 -157 146 -296 287 -365 83 -41 151 -57 244 -57 313 0 562 265 541 575 -22
320 -307 549 -627 504z m120 -192 l0 -44 55 -12 c30 -7 57 -17 61 -22 3 -6 1
-23 -6 -39 -12 -28 -13 -29 -41 -15 -15 8 -52 15 -82 15 -70 0 -107 -26 -107
-75 0 -42 32 -70 135 -120 53 -25 82 -46 100 -73 59 -87 7 -225 -95 -247 -28
-6 -30 -9 -30 -56 0 -48 -1 -49 -30 -49 -29 0 -30 1 -30 50 0 46 -2 50 -23 50
-13 0 -45 7 -71 16 -44 15 -47 18 -41 43 10 40 20 44 56 25 41 -21 126 -24
161 -5 14 7 31 24 37 38 29 64 0 105 -113 158 -43 21 -88 51 -106 72 -30 34
-32 40 -28 96 4 54 8 63 41 94 21 18 51 36 67 40 28 5 30 8 30 54 0 48 1 49
30 49 29 0 30 -2 30 -43z"/>
<path d="M6425 1748 c-69 -314 -172 -814 -168 -820 6 -12 151 -10 158 2 7 12
185 849 185 873 0 15 -10 17 -79 17 l-80 0 -16 -72z"/>
<path d="M8886 1758 c-6 -65 -21 -385 -32 -678 -6 -173 -14 -216 -47 -264 -22
-32 -97 -69 -120 -60 -12 4 -18 -8 -27 -53 -6 -32 -13 -65 -16 -74 -3 -12 4
-18 27 -21 92 -14 203 45 267 141 26 39 95 208 225 552 103 272 187 501 187
507 0 8 -25 12 -78 12 l-77 0 -94 -282 c-52 -156 -96 -278 -98 -272 -2 6 8
131 22 277 14 146 25 268 25 271 0 3 -36 6 -79 6 l-79 0 -6 -62z"/>
<path d="M1990 1170 l0 -540 -120 0 c-66 0 -120 -3 -120 -8 0 -11 434 -442
445 -442 12 0 445 431 445 443 0 4 -52 7 -115 7 l-115 0 0 71 0 71 -58 62
c-137 147 -201 375 -161 568 15 72 71 190 120 255 l40 53 -181 0 -180 0 0
-540z"/>
</g>
</svg>
