<svg version="1.1" id="Layer_1" xmlns="http://www.w3.org/2000/svg" xmlns:xlink="http://www.w3.org/1999/xlink" x="0px" y="0px"
	 width="100%" viewBox="0 0 1200 315" enable-background="new 0 0 1200 315" xml:space="preserve">
<path fill="#010101" opacity="1.000000" stroke="none" 
	d="
M880.000000,316.000000 
	C586.666687,316.000000 293.833344,316.000000 1.000000,316.000000 
	C1.000000,211.000000 1.000000,106.000000 1.000000,1.000000 
	C401.000000,1.000000 801.000000,1.000000 1201.000000,1.000000 
	C1201.000000,106.000000 1201.000000,211.000000 1201.000000,316.000000 
	C1094.166626,316.000000 987.333313,316.000000 880.000000,316.000000 
M336.051086,158.607178 
	C330.359528,130.231201 304.301880,111.840607 276.936371,114.798058 
	C238.095932,118.995621 216.247772,160.524155 234.921036,195.012665 
	C247.359299,217.985443 275.144196,229.072098 299.435699,220.755081 
	C325.346069,211.883820 340.910767,185.896561 336.051086,158.607178 
M318.740143,84.239845 
	C312.177948,90.804581 305.615753,97.369308 299.053589,103.934044 
	C299.367371,104.372879 299.681183,104.811714 299.994995,105.250549 
	C307.592377,105.250549 315.189728,105.250549 322.969391,105.250549 
	C323.044800,106.962280 323.290405,108.286781 323.127869,109.559135 
	C322.277252,116.218056 324.528809,121.021378 329.366974,126.116638 
	C343.502716,141.003586 348.572662,159.144516 345.201019,179.504608 
	C343.121613,192.061325 337.781952,203.070068 328.503357,213.008606 
	C339.646027,213.008606 349.908051,212.761871 360.148926,213.120346 
	C364.763550,213.281860 365.632202,211.628937 365.611176,207.409256 
	C365.451141,175.267822 365.523499,143.125198 365.523499,110.982956 
	C365.523499,109.185127 365.523529,107.387306 365.523529,104.852882 
	C373.547760,104.852882 381.196289,104.852882 388.989075,104.852882 
	C373.589020,89.556168 358.655426,74.722778 343.385956,59.555763 
	C335.664490,67.289474 327.452332,75.514648 318.740143,84.239845 
M199.827240,183.499924 
	C199.827240,199.755859 199.827240,216.011795 199.827240,232.894012 
	C191.511292,232.894012 183.817688,232.894012 176.981049,232.894012 
	C191.857132,247.776184 206.820358,262.745544 220.935883,276.866821 
	C235.860626,263.266846 251.363388,249.140167 266.866150,235.013474 
	C266.246582,234.209946 265.627014,233.406403 265.007477,232.602875 
	C257.460083,232.602875 249.912704,232.602875 242.003922,232.602875 
	C242.003922,230.271423 241.829758,228.446152 242.036224,226.664978 
	C242.685349,221.065292 240.937683,217.006302 236.782898,212.695145 
	C213.855789,188.905243 212.808685,153.929886 233.654999,128.190369 
	C234.400375,127.270042 234.995422,126.227974 235.693848,125.193298 
	C223.515656,125.193298 211.778061,125.193298 199.827240,125.193298 
	C199.827240,144.538956 199.827240,163.519424 199.827240,183.499924 
M839.340637,179.391235 
	C839.742065,175.797562 840.143433,172.203888 840.544678,168.611496 
	C824.380188,166.866013 821.071655,169.754883 821.135742,185.413528 
	C821.140503,186.579269 821.057434,187.761581 821.218140,188.907745 
	C822.067017,194.964371 824.311157,200.116852 830.319153,202.843704 
	C840.502441,207.465546 855.296509,204.717697 862.435852,196.007202 
	C872.605164,183.600052 876.169922,169.386032 870.555969,153.978455 
	C866.758545,143.556473 861.874023,133.529495 857.446655,123.338509 
	C854.542236,116.653114 854.547363,109.894058 858.080933,103.627586 
	C859.309021,101.449638 862.464417,100.358505 864.739624,98.770958 
	C866.027954,101.048447 868.073853,103.217369 868.419495,105.629944 
	C868.889099,108.906525 868.058044,112.369461 867.769348,115.943901 
	C870.224670,115.624397 872.198914,115.325180 874.182678,115.116280 
	C886.303406,113.839882 887.844177,111.897217 886.532898,99.430000 
	C886.393616,98.105736 886.219238,96.781425 885.979431,95.472099 
	C884.628601,88.095459 880.633057,84.105927 873.223511,82.693718 
	C860.849060,80.335258 849.217163,86.192719 842.767517,97.736458 
	C835.101196,111.457825 836.354065,125.186783 842.392151,138.960373 
	C845.657227,146.408371 849.158447,153.752594 852.460449,161.184814 
	C855.597900,168.246429 855.911987,175.356369 852.296448,182.373444 
	C850.555420,185.752411 848.409363,188.859604 843.936401,188.107758 
	C839.513611,187.364395 839.808228,183.551178 839.340637,179.391235 
M887.091370,175.201767 
	C886.646057,183.668381 885.967529,192.130676 885.809998,200.602646 
	C885.574829,213.252274 879.089783,220.258286 867.892456,221.015900 
	C866.983948,225.573029 866.062683,230.193619 865.129150,234.876099 
	C874.369263,236.658005 882.316406,234.868408 888.191162,228.465775 
	C892.819397,223.421509 897.364746,217.672974 899.857422,211.406158 
	C910.660645,184.245148 920.702026,156.780975 931.007568,129.422211 
	C932.863342,124.495613 934.658875,119.546318 936.730347,113.935562 
	C932.128479,113.935562 928.320068,114.146385 924.547119,113.871193 
	C921.325378,113.636208 919.897339,114.831299 918.913513,117.901680 
	C914.196228,132.623672 909.247498,147.271744 904.328064,161.928329 
	C903.825256,163.426270 902.969604,164.805786 902.277710,166.240265 
	C901.943787,166.101334 901.609863,165.962402 901.275879,165.823456 
	C902.928650,148.663910 904.581360,131.504364 906.243164,114.250565 
	C900.303894,114.250565 895.222778,114.250565 889.756470,114.250565 
	C888.862122,134.440445 887.980347,154.346619 887.091370,175.201767 
M782.408020,198.978378 
	C786.647156,178.772079 790.883362,158.565170 795.131042,138.360687 
	C795.473328,136.732498 795.371094,134.538849 796.388855,133.623734 
	C798.450256,131.770157 801.138306,130.613525 803.568115,129.169540 
	C803.990784,131.354141 805.122253,133.678635 804.723022,135.701004 
	C801.757690,150.723785 798.481812,165.685211 795.317078,180.668777 
	C793.749023,188.092758 792.209900,195.522842 790.565247,203.392059 
	C795.378052,203.392059 799.528748,203.244354 803.662964,203.441849 
	C806.621582,203.583176 807.528809,202.373718 808.102722,199.546082 
	C811.940552,180.636948 816.047363,161.782547 819.992310,142.894821 
	C821.180298,137.207169 822.542786,131.506912 823.059143,125.743790 
	C823.460693,121.262115 822.719666,116.572380 818.116089,114.000099 
	C813.455627,111.395981 809.456665,113.617996 805.634033,116.195175 
	C803.693726,117.503311 801.840820,118.941185 799.349426,120.756935 
	C799.567566,117.956467 799.701843,116.232971 799.873352,114.031693 
	C795.517700,114.031693 791.538208,114.223305 787.587219,113.970688 
	C784.459534,113.770721 783.338928,114.862160 782.710693,117.980812 
	C778.996948,136.415405 775.008179,154.794540 771.119873,173.194016 
	C769.031738,183.074829 766.959106,192.958939 764.763306,203.393631 
	C769.651978,203.393631 773.948608,203.214981 778.221497,203.456055 
	C781.099060,203.618423 782.149292,202.374222 782.408020,198.978378 
M713.134216,119.691605 
	C709.655579,112.285240 704.806580,111.025246 697.475647,115.577377 
	C695.269714,116.947159 693.000122,118.214287 689.768066,120.110062 
	C690.192932,117.162880 690.390198,115.794640 690.596985,114.360451 
	C685.146790,114.360451 679.857910,114.360451 674.311523,114.360451 
	C668.051941,144.047272 661.831116,173.550293 655.538147,203.395523 
	C661.453857,203.395523 666.691956,203.395523 672.041321,203.395523 
	C672.396851,202.262833 672.773987,201.340164 672.974670,200.380554 
	C677.366150,179.387558 681.691589,158.380478 686.183838,137.409119 
	C686.644348,135.259537 687.658386,132.874313 689.193054,131.417297 
	C690.500732,130.175705 692.928223,130.113617 694.860291,129.529724 
	C695.168152,131.344849 696.028381,133.269150 695.694702,134.957489 
	C693.436829,146.382294 690.911499,157.754044 688.501892,169.149139 
	C686.109863,180.460922 683.752136,191.779953 681.276550,203.586411 
	C686.040527,203.586411 690.184326,203.397781 694.301270,203.649216 
	C697.309265,203.832932 698.282410,202.542542 698.847107,199.807877 
	C703.628052,176.651810 708.615662,153.538132 713.313477,130.365555 
	C713.953735,127.207542 713.337280,123.794777 713.134216,119.691605 
M937.829224,148.200043 
	C933.978394,166.354065 930.127563,184.508102 926.209656,202.978363 
	C931.945190,202.978363 937.226135,202.978363 942.782288,202.978363 
	C943.157166,201.543625 943.585632,200.145905 943.885132,198.721100 
	C948.257385,177.925003 952.566467,157.115356 957.046204,136.342499 
	C957.471375,134.370911 958.536499,132.115204 960.041931,130.920959 
	C961.462402,129.794083 963.856201,129.894119 965.821838,129.454437 
	C966.020935,131.133942 966.675415,132.907501 966.350769,134.478806 
	C961.651367,157.226944 956.820618,179.947952 951.966980,202.932922 
	C957.622803,202.932922 963.053345,202.932922 968.686096,202.932922 
	C973.507324,180.017532 978.355103,157.311523 983.004150,134.564880 
	C983.824463,130.551392 984.409607,126.317780 984.066345,122.273842 
	C983.322510,113.508614 976.749084,110.303642 969.193787,114.709648 
	C966.429443,116.321701 963.888489,118.316833 960.637268,120.556229 
	C960.927979,117.976860 961.125671,116.222458 961.355896,114.179108 
	C955.823608,114.179108 950.551697,114.179108 945.005188,114.179108 
	C942.640320,125.282181 940.289246,136.320404 937.829224,148.200043 
M732.517822,121.013870 
	C727.161682,126.323395 723.922974,132.636063 723.044556,140.704895 
	C727.693848,140.704895 732.017761,140.958801 736.280151,140.558365 
	C737.653503,140.429382 739.301086,138.819626 740.054749,137.460999 
	C741.402771,135.030960 741.814514,132.044846 743.322815,129.755783 
	C744.092285,128.587952 746.607300,127.673462 747.932068,128.051346 
	C748.996887,128.355103 750.215454,130.859909 750.061401,132.242722 
	C749.196899,140.001419 748.541992,148.068283 738.826660,150.487167 
	C737.569092,150.800247 736.419678,151.589706 735.252625,152.218613 
	C719.291992,160.819931 711.496155,174.395615 711.103760,192.323166 
	C711.002075,196.967545 712.242981,201.399536 716.703735,203.819061 
	C721.168579,206.240799 725.486816,204.705765 729.424011,202.260773 
	C731.726685,200.830826 733.731812,198.921799 736.490417,196.737762 
	C734.847473,203.129776 737.944092,203.975952 742.593506,203.581024 
	C746.008484,203.290939 749.467957,203.524124 752.326416,203.524124 
	C755.501526,188.060165 758.524658,173.258423 761.584473,158.464264 
	C763.302368,150.157944 765.167786,141.881363 766.812439,133.560867 
	C769.578674,119.565849 759.345032,109.834290 745.565308,113.795746 
	C741.109680,115.076660 737.188477,118.216240 732.517822,121.013870 
M616.536011,133.092270 
	C614.395935,133.092270 612.255859,133.092270 609.702454,133.092270 
	C611.955811,122.474190 614.110779,112.319649 616.331421,101.855820 
	C624.635925,101.855820 632.581177,101.855820 640.609070,101.855820 
	C641.877930,95.731705 643.070190,89.977341 644.303345,84.025894 
	C629.910706,84.025894 616.156067,84.025894 602.244080,84.025894 
	C593.822876,123.892242 585.450439,163.527863 577.002808,203.519745 
	C583.171265,203.519745 588.778198,203.519745 594.690369,203.519745 
	C595.087891,201.954117 595.546082,200.382523 595.883179,198.785385 
	C598.320984,187.235092 600.712463,175.675003 603.161255,164.127075 
	C605.790222,151.729507 605.810547,151.733658 618.465637,151.448441 
	C618.798584,151.440948 619.231140,151.582199 619.448303,151.423279 
	C620.598572,150.581467 622.408203,149.846573 622.687561,148.744598 
	C623.970459,143.684067 624.820496,138.513779 625.882874,133.092087 
	C622.798706,133.092087 620.144348,133.092087 616.536011,133.092270 
M1004.243042,165.932770 
	C1006.153564,157.000595 1008.028564,148.060577 1009.994995,139.140717 
	C1010.634583,136.239273 1010.992859,133.074982 1012.473511,130.633606 
	C1013.390564,129.121521 1016.178833,128.744263 1018.127075,127.857613 
	C1018.803589,129.485641 1020.156494,131.170654 1020.025085,132.730591 
	C1019.681641,136.806015 1018.688904,140.826736 1017.870605,145.334076 
	C1022.883911,145.334076 1027.505737,145.451645 1032.112183,145.238785 
	C1033.079346,145.194092 1034.693115,144.038330 1034.814819,143.217499 
	C1035.712402,137.162567 1036.782349,131.069153 1036.864258,124.975273 
	C1036.946777,118.842392 1033.520020,115.228851 1027.627075,113.538200 
	C1014.411865,109.746841 1001.131348,115.853310 996.530518,129.093582 
	C993.116516,138.918777 991.109070,149.272491 988.995178,159.498322 
	C986.949646,169.393524 985.104309,179.378265 984.068726,189.416290 
	C983.436279,195.546310 986.199463,200.757095 992.523987,203.276947 
	C1004.176941,207.919800 1018.305420,202.726349 1023.231201,191.222366 
	C1026.004761,184.744781 1027.438232,177.693451 1029.619995,170.418610 
	C1023.273804,170.418610 1017.870361,170.418610 1012.406860,170.418610 
	C1011.255310,175.497208 1010.221802,180.352600 1009.037964,185.171066 
	C1008.260376,188.336227 1006.202698,190.235672 1002.849182,189.465607 
	C999.313293,188.653671 1000.226501,185.795212 1000.700745,183.367096 
	C1001.783203,177.824219 1002.933350,172.294556 1004.243042,165.932770 
M651.571716,162.190903 
	C654.880737,146.354950 658.189697,130.518997 661.551025,114.432365 
	C655.589111,114.432365 650.367493,114.432365 644.862061,114.432365 
	C638.596313,144.127106 632.375916,173.606903 626.078369,203.452499 
	C631.999756,203.452499 637.260803,203.452499 642.819885,203.452499 
	C645.661011,189.929504 648.490356,176.462692 651.571716,162.190903 
M475.791656,260.499878 
	C475.791656,272.943787 475.791656,285.387695 475.791656,297.723633 
	C481.222168,299.093475 479.847748,295.380615 479.848938,293.131470 
	C479.892700,210.839691 479.885803,128.547882 479.885773,46.256077 
	C479.885773,38.593277 479.769348,30.927916 479.938141,23.268837 
	C480.014008,19.824793 478.752869,19.265676 475.791656,20.460411 
	C475.791656,100.265907 475.791656,179.882858 475.791656,260.499878 
M664.290405,99.913849 
	C665.565735,94.656593 666.841003,89.399338 668.142517,84.034210 
	C662.172791,84.034210 656.772705,84.034210 651.280029,84.034210 
	C650.120850,89.481865 649.024353,94.634941 647.817749,100.305183 
	C653.350525,100.305183 658.445679,100.305183 664.290405,99.913849 
z"/>
<path fill="#FCFCFC" opacity="1.000000" stroke="none" 
	d="
M336.096680,159.037903 
	C340.910767,185.896561 325.346069,211.883820 299.435699,220.755081 
	C275.144196,229.072098 247.359299,217.985443 234.921036,195.012665 
	C216.247772,160.524155 238.095932,118.995621 276.936371,114.798058 
	C304.301880,111.840607 330.359528,130.231201 336.096680,159.037903 
M272.712708,142.038330 
	C262.597137,149.755295 263.332581,161.850204 274.407440,168.004074 
	C278.324371,170.180542 282.633636,171.667252 286.484467,173.941757 
	C290.239075,176.159424 292.844727,179.406235 291.690796,184.265854 
	C290.572784,188.974182 287.244812,191.214890 282.682922,191.451065 
	C279.734406,191.603729 276.689148,191.384674 273.803375,190.778915 
	C271.496124,190.294571 269.364075,188.975708 266.875824,187.907745 
	C266.099182,190.295502 265.458740,192.264450 264.624084,194.830612 
	C269.701630,196.262405 274.259644,197.547684 279.189941,198.937958 
	C279.189941,201.647568 279.189941,204.587433 279.189941,207.653137 
	C281.399963,207.653137 283.252930,207.653137 285.251831,207.653137 
	C285.251831,204.307922 285.251831,201.319031 285.251831,198.351852 
	C285.847900,198.108978 286.290253,197.859390 286.765106,197.745575 
	C294.341461,195.929962 299.186035,191.477478 300.038116,183.504929 
	C300.903290,175.409256 297.801086,170.664612 289.246216,166.318527 
	C285.694763,164.514282 282.143433,162.708176 278.625549,160.839828 
	C274.759644,158.786621 272.993530,155.503494 274.246521,151.297165 
	C275.513550,147.043701 279.144867,145.362396 283.225677,145.630005 
	C287.407318,145.904221 291.536102,146.984772 296.097961,147.784271 
	C296.643494,146.408279 297.406006,144.484909 298.422150,141.921814 
	C293.988098,140.704651 290.076843,139.630997 285.885712,138.480515 
	C285.885712,135.691666 285.885712,132.906982 285.885712,130.031830 
	C283.826660,130.031830 282.088654,130.031830 279.895630,130.031830 
	C279.895630,133.326859 279.895630,136.415833 279.895630,139.191406 
	C277.383606,140.137741 275.374390,140.894638 272.712708,142.038330 
z"/>
<path fill="#FAFAFA" opacity="1.000000" stroke="none" 
	d="
M318.990173,83.989838 
	C327.452332,75.514648 335.664490,67.289474 343.385956,59.555763 
	C358.655426,74.722778 373.589020,89.556168 388.989075,104.852882 
	C381.196289,104.852882 373.547760,104.852882 365.523529,104.852882 
	C365.523529,107.387306 365.523499,109.185127 365.523499,110.982956 
	C365.523499,143.125198 365.451141,175.267822 365.611176,207.409256 
	C365.632202,211.628937 364.763550,213.281860 360.148926,213.120346 
	C349.908051,212.761871 339.646027,213.008606 328.503357,213.008606 
	C337.781952,203.070068 343.121613,192.061325 345.201019,179.504608 
	C348.572662,159.144516 343.502716,141.003586 329.366974,126.116638 
	C324.528809,121.021378 322.277252,116.218056 323.127869,109.559135 
	C323.290405,108.286781 323.044800,106.962280 322.969391,105.250549 
	C315.189728,105.250549 307.592377,105.250549 299.994995,105.250549 
	C299.681183,104.811714 299.367371,104.372879 299.053589,103.934044 
	C305.615753,97.369308 312.177948,90.804581 318.990173,83.989838 
z"/>
<path fill="#FCFCFC" opacity="1.000000" stroke="none" 
	d="
M199.827240,182.999908 
	C199.827240,163.519424 199.827240,144.538956 199.827240,125.193298 
	C211.778061,125.193298 223.515656,125.193298 235.693848,125.193298 
	C234.995422,126.227974 234.400375,127.270042 233.654999,128.190369 
	C212.808685,153.929886 213.855789,188.905243 236.782898,212.695145 
	C240.937683,217.006302 242.685349,221.065292 242.036224,226.664978 
	C241.829758,228.446152 242.003922,230.271423 242.003922,232.602875 
	C249.912704,232.602875 257.460083,232.602875 265.007477,232.602875 
	C265.627014,233.406403 266.246582,234.209946 266.866150,235.013474 
	C251.363388,249.140167 235.860626,263.266846 220.935883,276.866821 
	C206.820358,262.745544 191.857132,247.776184 176.981049,232.894012 
	C183.817688,232.894012 191.511292,232.894012 199.827240,232.894012 
	C199.827240,216.011795 199.827240,199.755859 199.827240,182.999908 
z"/>
<path fill="#F9F9F9" opacity="1.000000" stroke="none" 
	d="
M839.341187,179.854736 
	C839.808228,183.551178 839.513611,187.364395 843.936401,188.107758 
	C848.409363,188.859604 850.555420,185.752411 852.296448,182.373444 
	C855.911987,175.356369 855.597900,168.246429 852.460449,161.184814 
	C849.158447,153.752594 845.657227,146.408371 842.392151,138.960373 
	C836.354065,125.186783 835.101196,111.457825 842.767517,97.736458 
	C849.217163,86.192719 860.849060,80.335258 873.223511,82.693718 
	C880.633057,84.105927 884.628601,88.095459 885.979431,95.472099 
	C886.219238,96.781425 886.393616,98.105736 886.532898,99.430000 
	C887.844177,111.897217 886.303406,113.839882 874.182678,115.116280 
	C872.198914,115.325180 870.224670,115.624397 867.769348,115.943901 
	C868.058044,112.369461 868.889099,108.906525 868.419495,105.629944 
	C868.073853,103.217369 866.027954,101.048447 864.739624,98.770973 
	C862.464417,100.358505 859.309021,101.449638 858.080933,103.627586 
	C854.547363,109.894058 854.542236,116.653114 857.446655,123.338509 
	C861.874023,133.529495 866.758545,143.556473 870.555969,153.978455 
	C876.169922,169.386032 872.605164,183.600052 862.435852,196.007202 
	C855.296509,204.717697 840.502441,207.465546 830.319153,202.843704 
	C824.311157,200.116852 822.067017,194.964371 821.218140,188.907745 
	C821.057434,187.761581 821.140503,186.579269 821.135742,185.413528 
	C821.071655,169.754883 824.380188,166.866013 840.544678,168.611496 
	C840.143433,172.203888 839.742065,175.797562 839.341187,179.854736 
z"/>
<path fill="#F9F9F9" opacity="1.000000" stroke="none" 
	d="
M887.094971,174.727280 
	C887.980347,154.346619 888.862122,134.440445 889.756470,114.250565 
	C895.222778,114.250565 900.303894,114.250565 906.243164,114.250565 
	C904.581360,131.504364 902.928650,148.663910 901.275879,165.823456 
	C901.609863,165.962402 901.943787,166.101334 902.277710,166.240265 
	C902.969604,164.805786 903.825256,163.426270 904.328064,161.928329 
	C909.247498,147.271744 914.196228,132.623672 918.913513,117.901680 
	C919.897339,114.831299 921.325378,113.636208 924.547119,113.871193 
	C928.320068,114.146385 932.128479,113.935562 936.730347,113.935562 
	C934.658875,119.546318 932.863342,124.495613 931.007568,129.422211 
	C920.702026,156.780975 910.660645,184.245148 899.857422,211.406158 
	C897.364746,217.672974 892.819397,223.421509 888.191162,228.465775 
	C882.316406,234.868408 874.369263,236.658005 865.129150,234.876099 
	C866.062683,230.193619 866.983948,225.573029 867.892456,221.015900 
	C879.089783,220.258286 885.574829,213.252274 885.809998,200.602646 
	C885.967529,192.130676 886.646057,183.668381 887.094971,174.727280 
z"/>
<path fill="#F9F9F9" opacity="1.000000" stroke="none" 
	d="
M782.327332,199.382111 
	C782.149292,202.374222 781.099060,203.618423 778.221497,203.456055 
	C773.948608,203.214981 769.651978,203.393631 764.763306,203.393631 
	C766.959106,192.958939 769.031738,183.074829 771.119873,173.194016 
	C775.008179,154.794540 778.996948,136.415405 782.710693,117.980812 
	C783.338928,114.862160 784.459534,113.770721 787.587219,113.970688 
	C791.538208,114.223305 795.517700,114.031693 799.873352,114.031693 
	C799.701843,116.232971 799.567566,117.956467 799.349426,120.756935 
	C801.840820,118.941185 803.693726,117.503311 805.634033,116.195175 
	C809.456665,113.617996 813.455627,111.395981 818.116089,114.000099 
	C822.719666,116.572380 823.460693,121.262115 823.059143,125.743790 
	C822.542786,131.506912 821.180298,137.207169 819.992310,142.894821 
	C816.047363,161.782547 811.940552,180.636948 808.102722,199.546082 
	C807.528809,202.373718 806.621582,203.583176 803.662964,203.441849 
	C799.528748,203.244354 795.378052,203.392059 790.565247,203.392059 
	C792.209900,195.522842 793.749023,188.092758 795.317078,180.668777 
	C798.481812,165.685211 801.757690,150.723785 804.723022,135.701004 
	C805.122253,133.678635 803.990784,131.354141 803.568115,129.169525 
	C801.138306,130.613525 798.450256,131.770157 796.388855,133.623734 
	C795.371094,134.538849 795.473328,136.732498 795.131042,138.360687 
	C790.883362,158.565170 786.647156,178.772079 782.327332,199.382111 
z"/>
<path fill="#F8F8F8" opacity="1.000000" stroke="none" 
	d="
M713.218506,120.095787 
	C713.337280,123.794777 713.953735,127.207542 713.313477,130.365555 
	C708.615662,153.538132 703.628052,176.651810 698.847107,199.807877 
	C698.282410,202.542542 697.309265,203.832932 694.301270,203.649216 
	C690.184326,203.397781 686.040527,203.586411 681.276550,203.586411 
	C683.752136,191.779953 686.109863,180.460922 688.501892,169.149139 
	C690.911499,157.754044 693.436829,146.382294 695.694702,134.957489 
	C696.028381,133.269150 695.168152,131.344849 694.860352,129.529724 
	C692.928223,130.113617 690.500732,130.175705 689.193054,131.417297 
	C687.658386,132.874313 686.644348,135.259537 686.183838,137.409119 
	C681.691589,158.380478 677.366150,179.387558 672.974670,200.380554 
	C672.773987,201.340164 672.396851,202.262833 672.041321,203.395523 
	C666.691956,203.395523 661.453857,203.395523 655.538147,203.395523 
	C661.831116,173.550293 668.051941,144.047272 674.311523,114.360451 
	C679.857910,114.360451 685.146790,114.360451 690.596985,114.360451 
	C690.390198,115.794640 690.192932,117.162880 689.768066,120.110062 
	C693.000122,118.214287 695.269714,116.947159 697.475647,115.577377 
	C704.806580,111.025246 709.655579,112.285240 713.218506,120.095787 
z"/>
<path fill="#FBFBFB" opacity="1.000000" stroke="none" 
	d="
M937.883667,147.779327 
	C940.289246,136.320404 942.640320,125.282181 945.005188,114.179108 
	C950.551697,114.179108 955.823608,114.179108 961.355896,114.179108 
	C961.125671,116.222458 960.927979,117.976860 960.637268,120.556229 
	C963.888489,118.316833 966.429443,116.321701 969.193787,114.709648 
	C976.749084,110.303642 983.322510,113.508614 984.066345,122.273842 
	C984.409607,126.317780 983.824463,130.551392 983.004150,134.564880 
	C978.355103,157.311523 973.507324,180.017532 968.686096,202.932922 
	C963.053345,202.932922 957.622803,202.932922 951.966980,202.932922 
	C956.820618,179.947952 961.651367,157.226944 966.350769,134.478806 
	C966.675415,132.907501 966.020935,131.133942 965.821838,129.454437 
	C963.856201,129.894119 961.462402,129.794083 960.041931,130.920959 
	C958.536499,132.115204 957.471375,134.370911 957.046204,136.342499 
	C952.566467,157.115356 948.257385,177.925003 943.885132,198.721100 
	C943.585632,200.145905 943.157166,201.543625 942.782288,202.978363 
	C937.226135,202.978363 931.945190,202.978363 926.209656,202.978363 
	C930.127563,184.508102 933.978394,166.354065 937.883667,147.779327 
z"/>
<path fill="#F9F9F9" opacity="1.000000" stroke="none" 
	d="
M732.770264,120.759735 
	C737.188477,118.216240 741.109680,115.076660 745.565308,113.795746 
	C759.345032,109.834290 769.578674,119.565849 766.812439,133.560867 
	C765.167786,141.881363 763.302368,150.157944 761.584473,158.464264 
	C758.524658,173.258423 755.501526,188.060165 752.326416,203.524124 
	C749.467957,203.524124 746.008484,203.290939 742.593506,203.581024 
	C737.944092,203.975952 734.847473,203.129776 736.490417,196.737762 
	C733.731812,198.921799 731.726685,200.830826 729.424011,202.260773 
	C725.486816,204.705765 721.168579,206.240799 716.703735,203.819061 
	C712.242981,201.399536 711.002075,196.967545 711.103760,192.323166 
	C711.496155,174.395615 719.291992,160.819931 735.252625,152.218613 
	C736.419678,151.589706 737.569092,150.800247 738.826660,150.487167 
	C748.541992,148.068283 749.196899,140.001419 750.061401,132.242722 
	C750.215454,130.859909 748.996887,128.355103 747.932068,128.051346 
	C746.607300,127.673462 744.092285,128.587952 743.322815,129.755783 
	C741.814514,132.044846 741.402771,135.030960 740.054749,137.460999 
	C739.301086,138.819626 737.653503,140.429382 736.280151,140.558365 
	C732.017761,140.958801 727.693848,140.704895 723.044556,140.704895 
	C723.922974,132.636063 727.161682,126.323395 732.770264,120.759735 
M728.823486,183.457611 
	C729.832825,185.083298 731.493164,188.214172 731.751221,188.102539 
	C734.424316,186.946533 738.401855,185.771179 739.101990,183.642517 
	C741.459717,176.474045 742.629272,168.914780 744.446533,160.623566 
	C734.515137,165.478287 730.188782,172.981323 728.823486,183.457611 
z"/>
<path fill="#FAFAFA" opacity="1.000000" stroke="none" 
	d="
M617.013000,133.092178 
	C620.144348,133.092087 622.798706,133.092087 625.882874,133.092087 
	C624.820496,138.513779 623.970459,143.684067 622.687561,148.744598 
	C622.408203,149.846573 620.598572,150.581467 619.448303,151.423279 
	C619.231140,151.582199 618.798584,151.440948 618.465637,151.448441 
	C605.810547,151.733658 605.790222,151.729507 603.161255,164.127075 
	C600.712463,175.675003 598.320984,187.235092 595.883179,198.785385 
	C595.546082,200.382523 595.087891,201.954117 594.690369,203.519745 
	C588.778198,203.519745 583.171265,203.519745 577.002808,203.519745 
	C585.450439,163.527863 593.822876,123.892242 602.244080,84.025894 
	C616.156067,84.025894 629.910706,84.025894 644.303345,84.025894 
	C643.070190,89.977341 641.877930,95.731705 640.609070,101.855820 
	C632.581177,101.855820 624.635925,101.855820 616.331421,101.855820 
	C614.110779,112.319649 611.955811,122.474190 609.702454,133.092270 
	C612.255859,133.092270 614.395935,133.092270 617.013000,133.092178 
z"/>
<path fill="#FAFAFA" opacity="1.000000" stroke="none" 
	d="
M1004.149536,166.346161 
	C1002.933350,172.294556 1001.783203,177.824219 1000.700745,183.367096 
	C1000.226501,185.795212 999.313293,188.653671 1002.849182,189.465607 
	C1006.202698,190.235672 1008.260376,188.336227 1009.037964,185.171066 
	C1010.221802,180.352600 1011.255310,175.497208 1012.406860,170.418610 
	C1017.870361,170.418610 1023.273804,170.418610 1029.619995,170.418610 
	C1027.438232,177.693451 1026.004761,184.744781 1023.231201,191.222366 
	C1018.305420,202.726349 1004.176941,207.919800 992.523987,203.276947 
	C986.199463,200.757095 983.436279,195.546310 984.068726,189.416290 
	C985.104309,179.378265 986.949646,169.393524 988.995178,159.498322 
	C991.109070,149.272491 993.116516,138.918777 996.530518,129.093582 
	C1001.131348,115.853310 1014.411865,109.746841 1027.627075,113.538200 
	C1033.520020,115.228851 1036.946777,118.842392 1036.864258,124.975273 
	C1036.782349,131.069153 1035.712402,137.162567 1034.814819,143.217499 
	C1034.693115,144.038330 1033.079346,145.194092 1032.112183,145.238785 
	C1027.505737,145.451645 1022.883911,145.334076 1017.870605,145.334076 
	C1018.688904,140.826736 1019.681641,136.806015 1020.025085,132.730591 
	C1020.156494,131.170654 1018.803589,129.485641 1018.127075,127.857605 
	C1016.178833,128.744263 1013.390564,129.121521 1012.473511,130.633606 
	C1010.992859,133.074982 1010.634583,136.239273 1009.994995,139.140717 
	C1008.028564,148.060577 1006.153564,157.000595 1004.149536,166.346161 
z"/>
<path fill="#F8F8F8" opacity="1.000000" stroke="none" 
	d="
M651.445679,162.593399 
	C648.490356,176.462692 645.661011,189.929504 642.819885,203.452499 
	C637.260803,203.452499 631.999756,203.452499 626.078369,203.452499 
	C632.375916,173.606903 638.596313,144.127106 644.862061,114.432365 
	C650.367493,114.432365 655.589111,114.432365 661.551025,114.432365 
	C658.189697,130.518997 654.880737,146.354950 651.445679,162.593399 
z"/>
<path fill="#F0F0F0" opacity="1.000000" stroke="none" 
	d="
M475.791656,259.999847 
	C475.791656,179.882858 475.791656,100.265907 475.791656,20.460411 
	C478.752869,19.265676 480.014008,19.824793 479.938141,23.268837 
	C479.769348,30.927916 479.885773,38.593277 479.885773,46.256077 
	C479.885803,128.547882 479.892700,210.839691 479.848938,293.131470 
	C479.847748,295.380615 481.222168,299.093475 475.791656,297.723633 
	C475.791656,285.387695 475.791656,272.943787 475.791656,259.999847 
z"/>
<path fill="#FAFAFA" opacity="1.000000" stroke="none" 
	d="
M663.915649,100.109512 
	C658.445679,100.305183 653.350525,100.305183 647.817749,100.305183 
	C649.024353,94.634941 650.120850,89.481865 651.280029,84.034210 
	C656.772705,84.034210 662.172791,84.034210 668.142517,84.034210 
	C666.841003,89.399338 665.565735,94.656593 663.915649,100.109512 
z"/>
<path fill="#080808" opacity="1.000000" stroke="none" 
	d="
M273.038940,141.844940 
	C275.374390,140.894638 277.383606,140.137741 279.895630,139.191406 
	C279.895630,136.415833 279.895630,133.326859 279.895630,130.031830 
	C282.088654,130.031830 283.826660,130.031830 285.885712,130.031830 
	C285.885712,132.906982 285.885712,135.691666 285.885712,138.480515 
	C290.076843,139.630997 293.988098,140.704651 298.422150,141.921814 
	C297.406006,144.484909 296.643494,146.408279 296.097961,147.784271 
	C291.536102,146.984772 287.407318,145.904221 283.225677,145.630005 
	C279.144867,145.362396 275.513550,147.043701 274.246521,151.297165 
	C272.993530,155.503494 274.759644,158.786621 278.625549,160.839828 
	C282.143433,162.708176 285.694763,164.514282 289.246216,166.318527 
	C297.801086,170.664612 300.903290,175.409256 300.038116,183.504929 
	C299.186035,191.477478 294.341461,195.929962 286.765106,197.745575 
	C286.290253,197.859390 285.847900,198.108978 285.251831,198.351852 
	C285.251831,201.319031 285.251831,204.307922 285.251831,207.653137 
	C283.252930,207.653137 281.399963,207.653137 279.189941,207.653137 
	C279.189941,204.587433 279.189941,201.647568 279.189941,198.937958 
	C274.259644,197.547684 269.701630,196.262405 264.624084,194.830612 
	C265.458740,192.264450 266.099182,190.295502 266.875824,187.907745 
	C269.364075,188.975708 271.496124,190.294571 273.803375,190.778915 
	C276.689148,191.384674 279.734406,191.603729 282.682922,191.451065 
	C287.244812,191.214890 290.572784,188.974182 291.690796,184.265854 
	C292.844727,179.406235 290.239075,176.159424 286.484467,173.941757 
	C282.633636,171.667252 278.324371,170.180542 274.407440,168.004074 
	C263.332581,161.850204 262.597137,149.755295 273.038940,141.844940 
z"/>
<path fill="#090909" opacity="1.000000" stroke="none" 
	d="
M728.838013,183.019989 
	C730.188782,172.981323 734.515137,165.478287 744.446533,160.623566 
	C742.629272,168.914780 741.459717,176.474045 739.101990,183.642517 
	C738.401855,185.771179 734.424316,186.946533 731.751221,188.102539 
	C731.493164,188.214172 729.832825,185.083298 728.838013,183.019989 
z"/>
</svg>